# xmcd
#
# Track frame offsets:
#	150
#	14230
#	37035
#	51670
#	64350
#	78835
#	99415
#	119427
#	141715
#	162725
#	174017
#	191567
#	210177
#	230437
#
# Disc length: 3302 seconds
#
# Revision: 3
# Processed by: cddbd v1.5.2PL0 Copyright (c) Steve Scherf et al.
# Submitted via: audiograbber 1.83.01
#
DISCID=cd0ce40e
DTITLE=Eric Bibb - Me To You
DYEAR=1997
DGENRE=Blues
TTITLE0=Keep My Cool
TTITLE1=Sing Your Song (Duet with Taj Mahal)
TTITLE2=Catch Up To Your Heart
TTITLE3=Between A Woman An' A Man
TTITLE4=Talk To Me
TTITLE5=You're The One
TTITLE6=Something Much Greater (Duet with Pops Staples)
TTITLE7=Strong Love
TTITLE8=Looking Through The Window
TTITLE9=Gonna Walk This Road
TTITLE10=A Better Man
TTITLE11=I Need A Vacation
TTITLE12=I'll Be Your Car
TTITLE13=Me To You
EXTD=
EXTT0=
EXTT1=
EXTT2=
EXTT3=
EXTT4=
EXTT5=
EXTT6=
EXTT7=
EXTT8=
EXTT9=
EXTT10=
EXTT11=
EXTT12=
EXTT13=
PLAYORDER=
